<svg width="16" height="19" viewBox="0 0 16 19" fill="none" xmlns="http://www.w3.org/2000/svg">
<path d="M13.5203 14.3694H2.20184C2.05682 14.3694 1.93945 14.252 1.93945 14.107V8.25935C1.93945 6.14393 3.06811 4.18891 4.90027 3.13123C6.73242 2.07345 8.98973 2.07345 10.822 3.13123C12.6541 4.18901 13.7826 6.14402 13.7826 8.25935V14.107C13.7826 14.1766 13.755 14.2434 13.7059 14.2925C13.6566 14.3417 13.5898 14.3694 13.5202 14.3694L13.5203 14.3694ZM2.46434 13.8446H13.2578V8.25948C13.2578 6.33156 12.2293 4.54974 10.5594 3.58571C8.88964 2.62187 6.83244 2.62187 5.16266 3.58571C3.49292 4.54974 2.46425 6.33156 2.46425 8.25948L2.46434 13.8446Z" fill="black"/>
<path d="M13.7643 16.367H1.95646C1.50584 16.367 1.08965 16.1266 0.864228 15.7364C0.639007 15.3462 0.639007 14.8655 0.864228 14.4753C1.08963 14.0851 1.50585 13.8447 1.95646 13.8447H13.7643C14.2149 13.8447 14.6313 14.0851 14.8565 14.4753C15.0817 14.8655 15.0817 15.3462 14.8565 15.7364C14.6313 16.1266 14.2149 16.367 13.7643 16.367ZM1.95646 14.3695C1.69334 14.3695 1.45035 14.5099 1.31873 14.7377C1.18726 14.9655 1.18726 15.2462 1.31873 15.474C1.45038 15.7018 1.69336 15.8422 1.95646 15.8422H13.7643C14.0274 15.8422 14.2706 15.7018 14.402 15.474C14.5335 15.2462 14.5335 14.9655 14.402 14.7377C14.2705 14.5099 14.0274 14.3695 13.7643 14.3695H1.95646Z" fill="black"/>
<path d="M7.86012 18.6303C7.19033 18.6296 6.54819 18.3632 6.07466 17.8897C5.60098 17.416 5.33455 16.7738 5.33398 16.1042C5.33398 15.9592 5.45135 15.8418 5.59638 15.8418C5.74121 15.8418 5.85877 15.9592 5.85877 16.1042C5.85877 16.819 6.24018 17.4799 6.85946 17.8373C7.47853 18.1949 8.24152 18.1949 8.86078 17.8373C9.47986 17.4799 9.86147 16.819 9.86147 16.1042C9.86147 15.9592 9.97884 15.8418 10.1239 15.8418C10.2687 15.8418 10.3863 15.9592 10.3863 16.1042C10.3855 16.7738 10.1191 17.4159 9.64558 17.8897C9.17191 18.3632 8.52973 18.6296 7.86012 18.6303Z" fill="black"/>
<path d="M9.36981 3.06632C9.22498 3.06632 9.10742 2.94876 9.10742 2.80392V2.03396C9.11438 1.69906 8.98603 1.37531 8.75146 1.13602C8.51709 0.896698 8.19609 0.76175 7.86103 0.76175C7.52594 0.76175 7.20496 0.896698 6.97059 1.13602C6.73603 1.37534 6.60767 1.69908 6.61463 2.03396V2.80392C6.61463 2.94876 6.49708 3.06632 6.35224 3.06632C6.2074 3.06632 6.08984 2.94876 6.08984 2.80392V2.03396C6.10065 1.40846 6.44049 0.834987 6.98413 0.52533C7.52778 0.215515 8.19425 0.215515 8.73791 0.52533C9.28156 0.834963 9.62141 1.40846 9.63219 2.03396V2.80392C9.63219 2.94876 9.51484 3.06632 9.36981 3.06632Z" fill="black"/>
</svg>
